<mxfile host="app.diagrams.net" modified="2023-05-19T05:56:33.097Z" agent="Mozilla/5.0 (Windows NT 10.0; Win64; x64; rv:109.0) Gecko/20100101 Firefox/113.0" etag="Ut3HWkzxbCHp3X_uVRVw" version="21.1.8" type="github">
  <diagram id="d-U0d1p46qxexb8Z6TgB" name="第 1 页">
    <mxGraphModel dx="2736" dy="-205" grid="1" gridSize="10" guides="1" tooltips="1" connect="1" arrows="1" fold="1" page="1" pageScale="1" pageWidth="827" pageHeight="1169" math="0" shadow="0">
      <root>
        <mxCell id="0" />
        <mxCell id="1" parent="0" />
        <mxCell id="C9Y4gFjEJ6BBRUexVg0w-4" value="用户信息管理" style="html=1;fontSize=16;" parent="1" vertex="1">
          <mxGeometry x="-165" y="1440" width="110" height="40" as="geometry" />
        </mxCell>
        <mxCell id="C9Y4gFjEJ6BBRUexVg0w-6" value="评论管理" style="html=1;fontSize=16;" parent="1" vertex="1">
          <mxGeometry x="547" y="1440" width="110" height="40" as="geometry" />
        </mxCell>
        <mxCell id="C9Y4gFjEJ6BBRUexVg0w-7" value="权限隐私管理" style="html=1;fontSize=16;" parent="1" vertex="1">
          <mxGeometry x="947" y="1440" width="110" height="40" as="geometry" />
        </mxCell>
        <mxCell id="C9Y4gFjEJ6BBRUexVg0w-8" value="用户偏好管理" style="html=1;fontSize=16;" parent="1" vertex="1">
          <mxGeometry x="1397" y="1440" width="110" height="40" as="geometry" />
        </mxCell>
        <mxCell id="C9Y4gFjEJ6BBRUexVg0w-10" value="&lt;div style=&quot;font-size: 16px;&quot;&gt;用&lt;/div&gt;&lt;div style=&quot;font-size: 16px;&quot;&gt;户&lt;/div&gt;&lt;div style=&quot;font-size: 16px;&quot;&gt;登&lt;/div&gt;&lt;div style=&quot;font-size: 16px;&quot;&gt;录&lt;/div&gt;" style="html=1;whiteSpace=wrap;fontSize=16;" parent="1" vertex="1">
          <mxGeometry x="-210" y="1560" width="40" height="190" as="geometry" />
        </mxCell>
        <mxCell id="C9Y4gFjEJ6BBRUexVg0w-11" value="&lt;div style=&quot;font-size: 16px;&quot;&gt;用&lt;/div&gt;&lt;div style=&quot;font-size: 16px;&quot;&gt;户&lt;/div&gt;&lt;div style=&quot;font-size: 16px;&quot;&gt;注&lt;/div&gt;&lt;div style=&quot;font-size: 16px;&quot;&gt;册&lt;/div&gt;" style="html=1;fontSize=16;whiteSpace=wrap;" parent="1" vertex="1">
          <mxGeometry x="-290" y="1560" width="40" height="190" as="geometry" />
        </mxCell>
        <mxCell id="C9Y4gFjEJ6BBRUexVg0w-12" value="&lt;div&gt;关&lt;/div&gt;&lt;div&gt;注&lt;/div&gt;&lt;div&gt;/&lt;/div&gt;&lt;div&gt;取&lt;/div&gt;&lt;div&gt;关&lt;/div&gt;" style="html=1;whiteSpace=wrap;fontSize=16;" parent="1" vertex="1">
          <mxGeometry x="-50" y="1560" width="40" height="190" as="geometry" />
        </mxCell>
        <mxCell id="C9Y4gFjEJ6BBRUexVg0w-13" value="&lt;div&gt;用&lt;/div&gt;&lt;div&gt;户&lt;/div&gt;&lt;div&gt;信&lt;/div&gt;&lt;div&gt;息&lt;/div&gt;&lt;div&gt;编&lt;/div&gt;&lt;div&gt;辑&lt;/div&gt;" style="html=1;whiteSpace=wrap;fontSize=16;" parent="1" vertex="1">
          <mxGeometry x="-130" y="1560" width="40" height="190" as="geometry" />
        </mxCell>
        <mxCell id="C9Y4gFjEJ6BBRUexVg0w-15" value="&lt;div&gt;用&lt;/div&gt;&lt;div&gt;户&lt;/div&gt;&lt;div&gt;行&lt;/div&gt;&lt;div&gt;为&lt;/div&gt;&lt;div&gt;埋&lt;/div&gt;&lt;div&gt;点&lt;/div&gt;" style="html=1;whiteSpace=wrap;fontSize=16;" parent="1" vertex="1">
          <mxGeometry x="30" y="1560" width="40" height="190" as="geometry" />
        </mxCell>
        <mxCell id="C9Y4gFjEJ6BBRUexVg0w-43" value="" style="endArrow=none;html=1;rounded=0;exitX=0.5;exitY=1;exitDx=0;exitDy=0;" parent="1" edge="1" source="C9Y4gFjEJ6BBRUexVg0w-4">
          <mxGeometry width="50" height="50" relative="1" as="geometry">
            <mxPoint x="-10" y="1490" as="sourcePoint" />
            <mxPoint x="-110" y="1520" as="targetPoint" />
          </mxGeometry>
        </mxCell>
        <mxCell id="C9Y4gFjEJ6BBRUexVg0w-44" value="" style="endArrow=none;html=1;rounded=0;" parent="1" edge="1">
          <mxGeometry width="50" height="50" relative="1" as="geometry">
            <mxPoint x="-270" y="1520" as="sourcePoint" />
            <mxPoint x="50" y="1520" as="targetPoint" />
          </mxGeometry>
        </mxCell>
        <mxCell id="C9Y4gFjEJ6BBRUexVg0w-51" value="" style="endArrow=none;html=1;rounded=0;entryX=0.5;entryY=0;entryDx=0;entryDy=0;" parent="1" target="C9Y4gFjEJ6BBRUexVg0w-11" edge="1">
          <mxGeometry width="50" height="50" relative="1" as="geometry">
            <mxPoint x="-270" y="1520" as="sourcePoint" />
            <mxPoint x="70" y="1340" as="targetPoint" />
          </mxGeometry>
        </mxCell>
        <mxCell id="C9Y4gFjEJ6BBRUexVg0w-57" value="" style="endArrow=none;html=1;rounded=0;entryX=0.5;entryY=0;entryDx=0;entryDy=0;" parent="1" edge="1" target="C9Y4gFjEJ6BBRUexVg0w-10">
          <mxGeometry width="50" height="50" relative="1" as="geometry">
            <mxPoint x="-190" y="1520" as="sourcePoint" />
            <mxPoint x="60" y="1450" as="targetPoint" />
          </mxGeometry>
        </mxCell>
        <mxCell id="C9Y4gFjEJ6BBRUexVg0w-64" value="" style="endArrow=none;html=1;rounded=0;entryX=0.5;entryY=0;entryDx=0;entryDy=0;" parent="1" edge="1" target="C9Y4gFjEJ6BBRUexVg0w-13">
          <mxGeometry width="50" height="50" relative="1" as="geometry">
            <mxPoint x="-110" y="1520" as="sourcePoint" />
            <mxPoint x="60" y="1494.89" as="targetPoint" />
          </mxGeometry>
        </mxCell>
        <mxCell id="C9Y4gFjEJ6BBRUexVg0w-65" value="" style="endArrow=none;html=1;rounded=0;entryX=0.5;entryY=0;entryDx=0;entryDy=0;" parent="1" edge="1" target="C9Y4gFjEJ6BBRUexVg0w-12">
          <mxGeometry width="50" height="50" relative="1" as="geometry">
            <mxPoint x="-30" y="1520" as="sourcePoint" />
            <mxPoint x="60" y="1544.8899999999999" as="targetPoint" />
          </mxGeometry>
        </mxCell>
        <mxCell id="C9Y4gFjEJ6BBRUexVg0w-66" value="" style="endArrow=none;html=1;rounded=0;" parent="1" edge="1">
          <mxGeometry width="50" height="50" relative="1" as="geometry">
            <mxPoint x="50" y="1520" as="sourcePoint" />
            <mxPoint x="50" y="1560" as="targetPoint" />
          </mxGeometry>
        </mxCell>
        <mxCell id="49IgF9m1il93z8ICgpWP-1" value="博客发布平台" style="html=1;fontSize=16;" vertex="1" parent="1">
          <mxGeometry x="547" y="1320" width="110" height="40" as="geometry" />
        </mxCell>
        <mxCell id="49IgF9m1il93z8ICgpWP-2" value="博客管理" style="html=1;fontSize=16;" vertex="1" parent="1">
          <mxGeometry x="217" y="1440" width="110" height="40" as="geometry" />
        </mxCell>
        <mxCell id="49IgF9m1il93z8ICgpWP-3" value="" style="endArrow=none;html=1;rounded=0;exitX=0.5;exitY=1;exitDx=0;exitDy=0;" edge="1" parent="1">
          <mxGeometry width="50" height="50" relative="1" as="geometry">
            <mxPoint x="271.68" y="1480" as="sourcePoint" />
            <mxPoint x="271.68" y="1520" as="targetPoint" />
          </mxGeometry>
        </mxCell>
        <mxCell id="49IgF9m1il93z8ICgpWP-4" value="" style="endArrow=none;html=1;rounded=0;" edge="1" parent="1">
          <mxGeometry width="50" height="50" relative="1" as="geometry">
            <mxPoint x="147" y="1520" as="sourcePoint" />
            <mxPoint x="387" y="1520" as="targetPoint" />
          </mxGeometry>
        </mxCell>
        <mxCell id="49IgF9m1il93z8ICgpWP-6" value="" style="endArrow=none;html=1;rounded=0;entryX=0.5;entryY=0;entryDx=0;entryDy=0;" edge="1" parent="1">
          <mxGeometry width="50" height="50" relative="1" as="geometry">
            <mxPoint x="147" y="1520" as="sourcePoint" />
            <mxPoint x="147" y="1560" as="targetPoint" />
          </mxGeometry>
        </mxCell>
        <mxCell id="49IgF9m1il93z8ICgpWP-7" value="" style="endArrow=none;html=1;rounded=0;entryX=0.5;entryY=0;entryDx=0;entryDy=0;" edge="1" parent="1">
          <mxGeometry width="50" height="50" relative="1" as="geometry">
            <mxPoint x="227" y="1520" as="sourcePoint" />
            <mxPoint x="227" y="1560" as="targetPoint" />
          </mxGeometry>
        </mxCell>
        <mxCell id="49IgF9m1il93z8ICgpWP-8" value="" style="endArrow=none;html=1;rounded=0;entryX=0.5;entryY=0;entryDx=0;entryDy=0;" edge="1" parent="1">
          <mxGeometry width="50" height="50" relative="1" as="geometry">
            <mxPoint x="387" y="1520" as="sourcePoint" />
            <mxPoint x="387" y="1560" as="targetPoint" />
          </mxGeometry>
        </mxCell>
        <mxCell id="49IgF9m1il93z8ICgpWP-9" value="" style="endArrow=none;html=1;rounded=0;" edge="1" parent="1">
          <mxGeometry width="50" height="50" relative="1" as="geometry">
            <mxPoint x="307" y="1520" as="sourcePoint" />
            <mxPoint x="307" y="1560" as="targetPoint" />
          </mxGeometry>
        </mxCell>
        <mxCell id="49IgF9m1il93z8ICgpWP-17" value="" style="endArrow=none;html=1;rounded=0;exitX=0.5;exitY=1;exitDx=0;exitDy=0;" edge="1" parent="1">
          <mxGeometry width="50" height="50" relative="1" as="geometry">
            <mxPoint x="1000" y="1480" as="sourcePoint" />
            <mxPoint x="1000" y="1520" as="targetPoint" />
          </mxGeometry>
        </mxCell>
        <mxCell id="49IgF9m1il93z8ICgpWP-18" value="" style="endArrow=none;html=1;rounded=0;" edge="1" parent="1">
          <mxGeometry width="50" height="50" relative="1" as="geometry">
            <mxPoint x="800" y="1520" as="sourcePoint" />
            <mxPoint x="1200" y="1520" as="targetPoint" />
          </mxGeometry>
        </mxCell>
        <mxCell id="49IgF9m1il93z8ICgpWP-19" value="" style="endArrow=none;html=1;rounded=0;entryX=0.5;entryY=0;entryDx=0;entryDy=0;" edge="1" parent="1">
          <mxGeometry width="50" height="50" relative="1" as="geometry">
            <mxPoint x="800" y="1520" as="sourcePoint" />
            <mxPoint x="800" y="1560" as="targetPoint" />
          </mxGeometry>
        </mxCell>
        <mxCell id="49IgF9m1il93z8ICgpWP-20" value="" style="endArrow=none;html=1;rounded=0;entryX=0.5;entryY=0;entryDx=0;entryDy=0;" edge="1" parent="1">
          <mxGeometry width="50" height="50" relative="1" as="geometry">
            <mxPoint x="880" y="1520" as="sourcePoint" />
            <mxPoint x="880" y="1560" as="targetPoint" />
          </mxGeometry>
        </mxCell>
        <mxCell id="49IgF9m1il93z8ICgpWP-21" value="" style="endArrow=none;html=1;rounded=0;entryX=0.5;entryY=0;entryDx=0;entryDy=0;" edge="1" parent="1">
          <mxGeometry width="50" height="50" relative="1" as="geometry">
            <mxPoint x="960" y="1520" as="sourcePoint" />
            <mxPoint x="960" y="1560" as="targetPoint" />
          </mxGeometry>
        </mxCell>
        <mxCell id="49IgF9m1il93z8ICgpWP-22" value="" style="endArrow=none;html=1;rounded=0;entryX=0.5;entryY=0;entryDx=0;entryDy=0;" edge="1" parent="1">
          <mxGeometry width="50" height="50" relative="1" as="geometry">
            <mxPoint x="1040" y="1520" as="sourcePoint" />
            <mxPoint x="1040" y="1560" as="targetPoint" />
          </mxGeometry>
        </mxCell>
        <mxCell id="49IgF9m1il93z8ICgpWP-23" value="" style="endArrow=none;html=1;rounded=0;" edge="1" parent="1">
          <mxGeometry width="50" height="50" relative="1" as="geometry">
            <mxPoint x="1288" y="1520" as="sourcePoint" />
            <mxPoint x="1288" y="1560" as="targetPoint" />
          </mxGeometry>
        </mxCell>
        <mxCell id="49IgF9m1il93z8ICgpWP-24" value="" style="endArrow=none;html=1;rounded=0;" edge="1" parent="1">
          <mxGeometry width="50" height="50" relative="1" as="geometry">
            <mxPoint x="1450" y="1480" as="sourcePoint" />
            <mxPoint x="1450" y="1520" as="targetPoint" />
          </mxGeometry>
        </mxCell>
        <mxCell id="49IgF9m1il93z8ICgpWP-25" value="" style="endArrow=none;html=1;rounded=0;" edge="1" parent="1">
          <mxGeometry width="50" height="50" relative="1" as="geometry">
            <mxPoint x="1288" y="1520" as="sourcePoint" />
            <mxPoint x="1608" y="1520" as="targetPoint" />
          </mxGeometry>
        </mxCell>
        <mxCell id="49IgF9m1il93z8ICgpWP-26" value="" style="endArrow=none;html=1;rounded=0;entryX=0.5;entryY=0;entryDx=0;entryDy=0;" edge="1" parent="1">
          <mxGeometry width="50" height="50" relative="1" as="geometry">
            <mxPoint x="1120" y="1520" as="sourcePoint" />
            <mxPoint x="1120" y="1560" as="targetPoint" />
          </mxGeometry>
        </mxCell>
        <mxCell id="49IgF9m1il93z8ICgpWP-27" value="" style="endArrow=none;html=1;rounded=0;entryX=0.5;entryY=0;entryDx=0;entryDy=0;" edge="1" parent="1">
          <mxGeometry width="50" height="50" relative="1" as="geometry">
            <mxPoint x="1368" y="1520" as="sourcePoint" />
            <mxPoint x="1368" y="1560" as="targetPoint" />
          </mxGeometry>
        </mxCell>
        <mxCell id="49IgF9m1il93z8ICgpWP-28" value="" style="endArrow=none;html=1;rounded=0;entryX=0.5;entryY=0;entryDx=0;entryDy=0;" edge="1" parent="1" target="49IgF9m1il93z8ICgpWP-75">
          <mxGeometry width="50" height="50" relative="1" as="geometry">
            <mxPoint x="1450" y="1520" as="sourcePoint" />
            <mxPoint x="1448" y="1560" as="targetPoint" />
          </mxGeometry>
        </mxCell>
        <mxCell id="49IgF9m1il93z8ICgpWP-29" value="" style="endArrow=none;html=1;rounded=0;entryX=0.5;entryY=0;entryDx=0;entryDy=0;" edge="1" parent="1">
          <mxGeometry width="50" height="50" relative="1" as="geometry">
            <mxPoint x="1528" y="1520" as="sourcePoint" />
            <mxPoint x="1528" y="1560" as="targetPoint" />
          </mxGeometry>
        </mxCell>
        <mxCell id="49IgF9m1il93z8ICgpWP-30" value="" style="endArrow=none;html=1;rounded=0;" edge="1" parent="1">
          <mxGeometry width="50" height="50" relative="1" as="geometry">
            <mxPoint x="1608" y="1520" as="sourcePoint" />
            <mxPoint x="1608" y="1560" as="targetPoint" />
          </mxGeometry>
        </mxCell>
        <mxCell id="49IgF9m1il93z8ICgpWP-31" value="" style="endArrow=none;html=1;rounded=0;exitX=0.5;exitY=1;exitDx=0;exitDy=0;" edge="1" parent="1">
          <mxGeometry width="50" height="50" relative="1" as="geometry">
            <mxPoint x="600" y="1480" as="sourcePoint" />
            <mxPoint x="600" y="1520" as="targetPoint" />
          </mxGeometry>
        </mxCell>
        <mxCell id="49IgF9m1il93z8ICgpWP-32" value="" style="endArrow=none;html=1;rounded=0;" edge="1" parent="1">
          <mxGeometry width="50" height="50" relative="1" as="geometry">
            <mxPoint x="480" y="1520" as="sourcePoint" />
            <mxPoint x="720" y="1520" as="targetPoint" />
          </mxGeometry>
        </mxCell>
        <mxCell id="49IgF9m1il93z8ICgpWP-33" value="" style="endArrow=none;html=1;rounded=0;entryX=0.5;entryY=0;entryDx=0;entryDy=0;" edge="1" parent="1">
          <mxGeometry width="50" height="50" relative="1" as="geometry">
            <mxPoint x="480" y="1520" as="sourcePoint" />
            <mxPoint x="480" y="1560" as="targetPoint" />
          </mxGeometry>
        </mxCell>
        <mxCell id="49IgF9m1il93z8ICgpWP-34" value="" style="endArrow=none;html=1;rounded=0;entryX=0.5;entryY=0;entryDx=0;entryDy=0;" edge="1" parent="1">
          <mxGeometry width="50" height="50" relative="1" as="geometry">
            <mxPoint x="560" y="1520" as="sourcePoint" />
            <mxPoint x="560" y="1560" as="targetPoint" />
          </mxGeometry>
        </mxCell>
        <mxCell id="49IgF9m1il93z8ICgpWP-35" value="" style="endArrow=none;html=1;rounded=0;entryX=0.5;entryY=0;entryDx=0;entryDy=0;" edge="1" parent="1">
          <mxGeometry width="50" height="50" relative="1" as="geometry">
            <mxPoint x="720" y="1520" as="sourcePoint" />
            <mxPoint x="720" y="1560" as="targetPoint" />
          </mxGeometry>
        </mxCell>
        <mxCell id="49IgF9m1il93z8ICgpWP-36" value="" style="endArrow=none;html=1;rounded=0;" edge="1" parent="1">
          <mxGeometry width="50" height="50" relative="1" as="geometry">
            <mxPoint x="640" y="1520" as="sourcePoint" />
            <mxPoint x="640" y="1560" as="targetPoint" />
          </mxGeometry>
        </mxCell>
        <mxCell id="49IgF9m1il93z8ICgpWP-37" value="" style="endArrow=none;html=1;rounded=0;" edge="1" parent="1">
          <mxGeometry width="50" height="50" relative="1" as="geometry">
            <mxPoint x="1200" y="1520" as="sourcePoint" />
            <mxPoint x="1200" y="1560" as="targetPoint" />
          </mxGeometry>
        </mxCell>
        <mxCell id="49IgF9m1il93z8ICgpWP-48" value="&lt;div&gt;发&lt;/div&gt;&lt;div&gt;布&lt;/div&gt;&lt;div&gt;博&lt;/div&gt;&lt;div&gt;客&lt;/div&gt;" style="html=1;fontSize=16;whiteSpace=wrap;" vertex="1" parent="1">
          <mxGeometry x="127" y="1560" width="40" height="190" as="geometry" />
        </mxCell>
        <mxCell id="49IgF9m1il93z8ICgpWP-49" value="&lt;div&gt;删&lt;/div&gt;&lt;div&gt;除&lt;/div&gt;&lt;div&gt;博&lt;/div&gt;&lt;div&gt;客&lt;/div&gt;" style="html=1;fontSize=16;whiteSpace=wrap;" vertex="1" parent="1">
          <mxGeometry x="207" y="1560" width="40" height="190" as="geometry" />
        </mxCell>
        <mxCell id="49IgF9m1il93z8ICgpWP-50" value="&lt;div&gt;编&lt;/div&gt;&lt;div&gt;辑&lt;/div&gt;&lt;div&gt;博&lt;/div&gt;&lt;div&gt;客&lt;/div&gt;" style="html=1;fontSize=16;whiteSpace=wrap;" vertex="1" parent="1">
          <mxGeometry x="287" y="1560" width="40" height="190" as="geometry" />
        </mxCell>
        <mxCell id="49IgF9m1il93z8ICgpWP-51" value="&lt;div&gt;设&lt;/div&gt;&lt;div&gt;置&lt;/div&gt;&lt;div&gt;博&lt;/div&gt;&lt;div&gt;客&lt;/div&gt;&lt;div&gt;隐&lt;/div&gt;&lt;div&gt;私&lt;/div&gt;&lt;div&gt;权&lt;/div&gt;&lt;div&gt;限&lt;/div&gt;" style="html=1;fontSize=16;whiteSpace=wrap;" vertex="1" parent="1">
          <mxGeometry x="367" y="1560" width="40" height="190" as="geometry" />
        </mxCell>
        <mxCell id="49IgF9m1il93z8ICgpWP-52" value="&lt;div&gt;发&lt;/div&gt;&lt;div&gt;布&lt;/div&gt;&lt;div&gt;评&lt;/div&gt;&lt;div&gt;论&lt;br&gt;&lt;/div&gt;" style="html=1;fontSize=16;whiteSpace=wrap;" vertex="1" parent="1">
          <mxGeometry x="460" y="1560" width="40" height="190" as="geometry" />
        </mxCell>
        <mxCell id="49IgF9m1il93z8ICgpWP-53" value="&lt;div&gt;删&lt;/div&gt;&lt;div&gt;除&lt;/div&gt;&lt;div&gt;评&lt;/div&gt;&lt;div&gt;论&lt;br&gt;&lt;/div&gt;" style="html=1;fontSize=16;whiteSpace=wrap;" vertex="1" parent="1">
          <mxGeometry x="540" y="1560" width="40" height="190" as="geometry" />
        </mxCell>
        <mxCell id="49IgF9m1il93z8ICgpWP-54" value="&lt;div&gt;展&lt;/div&gt;&lt;div&gt;示&lt;/div&gt;&lt;div&gt;评&lt;/div&gt;&lt;div&gt;论&lt;/div&gt;" style="html=1;fontSize=16;whiteSpace=wrap;" vertex="1" parent="1">
          <mxGeometry x="620" y="1560" width="40" height="190" as="geometry" />
        </mxCell>
        <mxCell id="49IgF9m1il93z8ICgpWP-55" value="&lt;div&gt;回&lt;/div&gt;&lt;div&gt;复&lt;/div&gt;&lt;div&gt;评&lt;/div&gt;&lt;div&gt;论&lt;/div&gt;" style="html=1;fontSize=16;whiteSpace=wrap;" vertex="1" parent="1">
          <mxGeometry x="700" y="1560" width="40" height="190" as="geometry" />
        </mxCell>
        <mxCell id="49IgF9m1il93z8ICgpWP-56" value="&lt;div&gt;博&lt;/div&gt;&lt;div&gt;客&lt;/div&gt;&lt;div&gt;默&lt;/div&gt;&lt;div&gt;认&lt;/div&gt;&lt;div&gt;私&lt;/div&gt;&lt;div&gt;密&lt;/div&gt;&lt;div&gt;/&lt;/div&gt;&lt;div&gt;公&lt;/div&gt;&lt;div&gt;开&lt;/div&gt;" style="html=1;fontSize=16;whiteSpace=wrap;" vertex="1" parent="1">
          <mxGeometry x="780" y="1560" width="40" height="190" as="geometry" />
        </mxCell>
        <mxCell id="49IgF9m1il93z8ICgpWP-57" value="&lt;div&gt;开&lt;/div&gt;&lt;div&gt;/&lt;/div&gt;&lt;div&gt;关&lt;/div&gt;&lt;div&gt;评&lt;/div&gt;&lt;div&gt;论&lt;/div&gt;&lt;div&gt;区&lt;/div&gt;" style="html=1;fontSize=16;whiteSpace=wrap;" vertex="1" parent="1">
          <mxGeometry x="860" y="1560" width="40" height="190" as="geometry" />
        </mxCell>
        <mxCell id="49IgF9m1il93z8ICgpWP-58" value="&lt;div&gt;评&lt;/div&gt;&lt;div&gt;论&lt;/div&gt;&lt;div&gt;区&lt;/div&gt;&lt;div&gt;私&lt;/div&gt;&lt;div&gt;密&lt;/div&gt;&lt;div&gt;/&lt;/div&gt;&lt;div&gt;公&lt;/div&gt;&lt;div&gt;开&lt;/div&gt;" style="html=1;fontSize=16;whiteSpace=wrap;" vertex="1" parent="1">
          <mxGeometry x="940" y="1560" width="40" height="190" as="geometry" />
        </mxCell>
        <mxCell id="49IgF9m1il93z8ICgpWP-59" value="&lt;div&gt;新&lt;/div&gt;&lt;div&gt;评&lt;/div&gt;&lt;div&gt;论&lt;/div&gt;&lt;div&gt;默&lt;/div&gt;&lt;div&gt;认&lt;/div&gt;&lt;div&gt;私&lt;/div&gt;&lt;div&gt;密&lt;/div&gt;&lt;div&gt;/&lt;/div&gt;&lt;div&gt;公&lt;/div&gt;&lt;div&gt;开&lt;/div&gt;" style="html=1;fontSize=16;whiteSpace=wrap;" vertex="1" parent="1">
          <mxGeometry x="1020" y="1560" width="40" height="190" as="geometry" />
        </mxCell>
        <mxCell id="49IgF9m1il93z8ICgpWP-60" value="&lt;div&gt;粉&lt;/div&gt;&lt;div&gt;丝&lt;/div&gt;&lt;div&gt;列&lt;/div&gt;&lt;div&gt;表&lt;/div&gt;&lt;div&gt;私&lt;/div&gt;&lt;div&gt;密&lt;/div&gt;&lt;div&gt;/&lt;/div&gt;&lt;div&gt;公&lt;/div&gt;&lt;div&gt;开&lt;/div&gt;" style="html=1;fontSize=16;whiteSpace=wrap;" vertex="1" parent="1">
          <mxGeometry x="1100" y="1560" width="40" height="190" as="geometry" />
        </mxCell>
        <mxCell id="49IgF9m1il93z8ICgpWP-61" value="&lt;div&gt;关&lt;/div&gt;&lt;div&gt;注&lt;/div&gt;&lt;div&gt;列&lt;/div&gt;&lt;div&gt;表&lt;/div&gt;&lt;div&gt;私&lt;/div&gt;&lt;div&gt;密&lt;/div&gt;&lt;div&gt;/&lt;/div&gt;&lt;div&gt;公&lt;/div&gt;&lt;div&gt;开&lt;/div&gt;" style="html=1;fontSize=16;whiteSpace=wrap;" vertex="1" parent="1">
          <mxGeometry x="1180" y="1560" width="40" height="190" as="geometry" />
        </mxCell>
        <mxCell id="49IgF9m1il93z8ICgpWP-73" value="新建偏好" style="html=1;fontSize=16;whiteSpace=wrap;" vertex="1" parent="1">
          <mxGeometry x="1267" y="1560" width="40" height="190" as="geometry" />
        </mxCell>
        <mxCell id="49IgF9m1il93z8ICgpWP-74" value="删除偏好" style="html=1;fontSize=16;whiteSpace=wrap;" vertex="1" parent="1">
          <mxGeometry x="1347" y="1560" width="40" height="190" as="geometry" />
        </mxCell>
        <mxCell id="49IgF9m1il93z8ICgpWP-75" value="重置偏好" style="html=1;fontSize=16;whiteSpace=wrap;" vertex="1" parent="1">
          <mxGeometry x="1430" y="1560" width="40" height="190" as="geometry" />
        </mxCell>
        <mxCell id="49IgF9m1il93z8ICgpWP-76" value="重命名偏好" style="html=1;fontSize=16;whiteSpace=wrap;" vertex="1" parent="1">
          <mxGeometry x="1507" y="1560" width="40" height="190" as="geometry" />
        </mxCell>
        <mxCell id="49IgF9m1il93z8ICgpWP-77" value="切换偏好" style="html=1;fontSize=16;whiteSpace=wrap;" vertex="1" parent="1">
          <mxGeometry x="1587" y="1560" width="40" height="190" as="geometry" />
        </mxCell>
        <mxCell id="49IgF9m1il93z8ICgpWP-78" value="" style="endArrow=none;html=1;rounded=0;" edge="1" parent="1">
          <mxGeometry width="50" height="50" relative="1" as="geometry">
            <mxPoint x="600" y="1360" as="sourcePoint" />
            <mxPoint x="600" y="1440" as="targetPoint" />
          </mxGeometry>
        </mxCell>
        <mxCell id="49IgF9m1il93z8ICgpWP-79" value="" style="endArrow=none;html=1;rounded=0;" edge="1" parent="1">
          <mxGeometry width="50" height="50" relative="1" as="geometry">
            <mxPoint x="-110" y="1400" as="sourcePoint" />
            <mxPoint x="1450" y="1400" as="targetPoint" />
          </mxGeometry>
        </mxCell>
        <mxCell id="49IgF9m1il93z8ICgpWP-80" value="" style="endArrow=none;html=1;rounded=0;" edge="1" parent="1">
          <mxGeometry width="50" height="50" relative="1" as="geometry">
            <mxPoint x="-110" y="1400" as="sourcePoint" />
            <mxPoint x="-110.38" y="1440" as="targetPoint" />
          </mxGeometry>
        </mxCell>
        <mxCell id="49IgF9m1il93z8ICgpWP-81" value="" style="endArrow=none;html=1;rounded=0;" edge="1" parent="1">
          <mxGeometry width="50" height="50" relative="1" as="geometry">
            <mxPoint x="270.38" y="1400" as="sourcePoint" />
            <mxPoint x="270" y="1440" as="targetPoint" />
          </mxGeometry>
        </mxCell>
        <mxCell id="49IgF9m1il93z8ICgpWP-83" value="" style="endArrow=none;html=1;rounded=0;" edge="1" parent="1">
          <mxGeometry width="50" height="50" relative="1" as="geometry">
            <mxPoint x="1000" y="1400" as="sourcePoint" />
            <mxPoint x="1000" y="1440" as="targetPoint" />
          </mxGeometry>
        </mxCell>
        <mxCell id="49IgF9m1il93z8ICgpWP-84" value="" style="endArrow=none;html=1;rounded=0;" edge="1" parent="1">
          <mxGeometry width="50" height="50" relative="1" as="geometry">
            <mxPoint x="1450" y="1400" as="sourcePoint" />
            <mxPoint x="1450" y="1440" as="targetPoint" />
          </mxGeometry>
        </mxCell>
      </root>
    </mxGraphModel>
  </diagram>
</mxfile>
